<?xml version="1.0" standalone="no"?>
<!DOCTYPE svg PUBLIC "-//W3C//DTD SVG 20010904//EN"
 "http://www.w3.org/TR/2001/REC-SVG-20010904/DTD/svg10.dtd">
<svg version="1.0" xmlns="http://www.w3.org/2000/svg"
 width="512.000000pt" height="512.000000pt" viewBox="0 0 512.000000 512.000000"
 preserveAspectRatio="xMidYMid meet">
<metadata>
Created by potrace 1.11, written by Peter Selinger 2001-2013
</metadata>
<g transform="translate(0.000000,512.000000) scale(0.100000,-0.100000)"
fill="#000000" stroke="none">
<path d="M2325 4539 c-563 -77 -1048 -383 -1362 -861 -126 -191 -217 -415
-270 -663 -26 -122 -28 -145 -27 -375 0 -228 2 -254 27 -373 146 -685 607
-1211 1260 -1436 230 -79 423 -107 687 -98 491 16 932 208 1281 556 284 285
460 624 536 1036 20 113 28 398 14 520 -41 351 -163 662 -367 936 -294 394
-710 652 -1205 745 -100 19 -469 27 -574 13z m-135 -1037 c146 -48 282 -159
344 -282 l34 -69 31 66 c80 171 316 312 523 313 209 1 388 -138 482 -374 67
-167 73 -313 21 -493 l-16 -53 -497 0 -498 0 -29 -215 c-16 -119 -32 -210 -35
-203 -4 7 -51 237 -106 510 -54 274 -102 494 -105 490 -6 -6 -199 -731 -199
-746 0 -3 -119 -6 -264 -6 l-264 0 -16 24 c-31 49 -85 193 -102 276 -31 156
-6 336 68 485 56 112 150 211 245 259 100 50 260 58 383 18z m260 -1334 c63
-313 117 -568 120 -568 4 0 14 53 23 118 9 64 37 269 63 455 l47 337 428 0
c236 0 429 -2 429 -5 0 -13 -46 -95 -91 -161 -157 -233 -389 -460 -738 -723
l-160 -121 -188 146 c-319 249 -494 412 -643 599 l-71 90 273 3 274 2 54 210
c30 115 57 204 61 197 3 -7 57 -267 119 -579z"/>
</g>
</svg>
