<svg id="Layer_1" data-name="Layer 1" xmlns="http://www.w3.org/2000/svg" width="197.33" height="49.97" viewBox="0 0 197.33 49.97"><title>erdf</title><path d="M74.91,14.36V2.73h8.57v2H77.24V7.28H83v2h-5.8V12.4H83.7v2Zm16.27,0V13.1A3.19,3.19,0,0,1,90,14.17a3.32,3.32,0,0,1-1.57.39,3,3,0,0,1-1.51-.38,2.19,2.19,0,0,1-1-1,4.68,4.68,0,0,1-.3-1.86V5.93h2.21V9.81A10,10,0,0,0,88,12a1.14,1.14,0,0,0,.44.63,1.35,1.35,0,0,0,.82.24,1.74,1.74,0,0,0,1-.32,1.61,1.61,0,0,0,.61-.77A9.07,9.07,0,0,0,91,9.49V5.93h2.21v8.43Zm6.48,0H95.45V5.93h2v1.2a3.81,3.81,0,0,1,1-1.12,1.74,1.74,0,0,1,1-.27,2.82,2.82,0,0,1,1.46.42l-.69,1.95a2,2,0,0,0-1-.37,1.25,1.25,0,0,0-.79.26,1.8,1.8,0,0,0-.5.94,12.76,12.76,0,0,0-.19,2.82ZM101.3,10a4.5,4.5,0,0,1,.55-2.15,3.75,3.75,0,0,1,1.54-1.59,4.57,4.57,0,0,1,2.22-.55A4.14,4.14,0,0,1,108.72,7a4.29,4.29,0,0,1,1.22,3.14,4.36,4.36,0,0,1-1.23,3.17,4.1,4.1,0,0,1-3.08,1.26,4.85,4.85,0,0,1-2.2-.53,3.6,3.6,0,0,1-1.58-1.53A5.09,5.09,0,0,1,101.3,10Zm2.27.12a2.81,2.81,0,0,0,.59,1.92,1.87,1.87,0,0,0,1.46.67,1.83,1.83,0,0,0,1.45-.67,2.85,2.85,0,0,0,.59-1.94,2.79,2.79,0,0,0-.59-1.9,1.83,1.83,0,0,0-1.45-.67,1.87,1.87,0,0,0-1.46.67,2.81,2.81,0,0,0-.59,1.92Zm8.05-4.22h2.06V7.17a3.17,3.17,0,0,1,1.09-1,3,3,0,0,1,1.52-.4,3.16,3.16,0,0,1,2.47,1.16,4.64,4.64,0,0,1,1,3.2,4.83,4.83,0,0,1-1,3.28,3.18,3.18,0,0,1-2.49,1.18,2.83,2.83,0,0,1-1.25-.28,4.39,4.39,0,0,1-1.19-1v4.25h-2.21ZM113.81,10a3.25,3.25,0,0,0,.56,2.1,1.7,1.7,0,0,0,1.36.68,1.59,1.59,0,0,0,1.28-.63,3.14,3.14,0,0,0,.52-2,3.07,3.07,0,0,0-.53-2,1.62,1.62,0,0,0-1.31-.64,1.71,1.71,0,0,0-1.35.63,2.86,2.86,0,0,0-.53,1.87Zm12.58,1.67,2.21.37a3.66,3.66,0,0,1-1.35,1.87,3.94,3.94,0,0,1-2.29.64,3.71,3.71,0,0,1-3.23-1.44,4.82,4.82,0,0,1-.83-2.91A4.66,4.66,0,0,1,122,6.93a3.57,3.57,0,0,1,2.75-1.19A3.69,3.69,0,0,1,127.68,7a5.5,5.5,0,0,1,1,3.8h-5.55a2.27,2.27,0,0,0,.53,1.55,1.72,1.72,0,0,0,1.28.55,1.37,1.37,0,0,0,.88-.29,1.77,1.77,0,0,0,.53-.92Zm.13-2.25A2.13,2.13,0,0,0,126,8a1.5,1.5,0,0,0-1.15-.51,1.56,1.56,0,0,0-1.2.53,2.09,2.09,0,0,0-.46,1.45Zm5.66-.92-2-.37a3.2,3.2,0,0,1,1.17-1.81,4.25,4.25,0,0,1,2.46-.59,5.13,5.13,0,0,1,2.2.36A2.19,2.19,0,0,1,137,7a4.8,4.8,0,0,1,.29,2l0,2.6a9.26,9.26,0,0,0,.1,1.64,4.81,4.81,0,0,0,.4,1.13h-2.19a5.59,5.59,0,0,1-.21-.65c0-.14-.07-.22-.08-.27a4.13,4.13,0,0,1-1.21.84,3.58,3.58,0,0,1-1.38.28,2.86,2.86,0,0,1-2-.71,2.35,2.35,0,0,1-.74-1.79,2.45,2.45,0,0,1,.33-1.27,2.32,2.32,0,0,1,.95-.86A7.53,7.53,0,0,1,133,9.41a11.45,11.45,0,0,0,2.16-.55V8.64a1.18,1.18,0,0,0-.32-.92,1.91,1.91,0,0,0-1.19-.27,1.55,1.55,0,0,0-.92.24,1.63,1.63,0,0,0-.54.82Zm3,1.81c-.29.09-.74.21-1.35.34a3.87,3.87,0,0,0-1.21.39.92.92,0,0,0-.43.78,1.08,1.08,0,0,0,.35.81,1.18,1.18,0,0,0,.88.34,1.92,1.92,0,0,0,1.14-.39,1.43,1.43,0,0,0,.53-.74,4.27,4.27,0,0,0,.09-1.09Zm12,4h-2.21v-4.3a6.84,6.84,0,0,0-.14-1.76,1.3,1.3,0,0,0-.46-.63,1.32,1.32,0,0,0-.77-.22,1.75,1.75,0,0,0-1,.32,1.55,1.55,0,0,0-.63.84,7.44,7.44,0,0,0-.17,1.94v3.81H139.5V5.93h2.05V7.17a3.35,3.35,0,0,1,2.76-1.43,3.24,3.24,0,0,1,1.34.27,2.28,2.28,0,0,1,.92.68,2.38,2.38,0,0,1,.43.94,7.08,7.08,0,0,1,.12,1.5Zm6.73-11.63h2.34V9a12,12,0,0,0,.08,2,1.91,1.91,0,0,0,.71,1.14,2.48,2.48,0,0,0,1.55.43,2.32,2.32,0,0,0,1.49-.4,1.64,1.64,0,0,0,.61-1,12.89,12.89,0,0,0,.1-2V2.73h2.33V8.84a15.45,15.45,0,0,1-.19,3,3.2,3.2,0,0,1-.69,1.46,3.53,3.53,0,0,1-1.36,1,5.8,5.8,0,0,1-2.22.35,6.47,6.47,0,0,1-2.51-.38,3.61,3.61,0,0,1-1.35-1,3.18,3.18,0,0,1-.66-1.29,14.38,14.38,0,0,1-.23-3Zm19.28,11.63h-2.22v-4.3a6.84,6.84,0,0,0-.14-1.76,1.24,1.24,0,0,0-.46-.63,1.29,1.29,0,0,0-.77-.22,1.77,1.77,0,0,0-1,.32,1.6,1.6,0,0,0-.63.84,7.44,7.44,0,0,0-.17,1.94v3.81H165.5V5.93h2.06V7.17a3.35,3.35,0,0,1,2.75-1.43,3.24,3.24,0,0,1,1.34.27,2.22,2.22,0,0,1,.92.68,2.38,2.38,0,0,1,.43.94,6.37,6.37,0,0,1,.13,1.5Zm2.25-9.57V2.73h2.21V4.79Zm0,9.57V5.93h2.21v8.43Zm4-4.33a4.61,4.61,0,0,1,.55-2.15,3.75,3.75,0,0,1,1.54-1.59,4.57,4.57,0,0,1,2.22-.55A4.17,4.17,0,0,1,186.77,7,4.28,4.28,0,0,1,188,10.13a4.39,4.39,0,0,1-1.22,3.17,4.14,4.14,0,0,1-3.09,1.26,4.78,4.78,0,0,1-2.19-.53,3.57,3.57,0,0,1-1.59-1.53,5.21,5.21,0,0,1-.55-2.47Zm2.27.12a2.81,2.81,0,0,0,.59,1.92,1.93,1.93,0,0,0,2.92,0,2.85,2.85,0,0,0,.58-1.94,2.79,2.79,0,0,0-.58-1.9,1.93,1.93,0,0,0-2.92,0,2.81,2.81,0,0,0-.59,1.92Zm15.72,4.21h-2.21v-4.3A6.84,6.84,0,0,0,195,8.3a1.3,1.3,0,0,0-.46-.63,1.32,1.32,0,0,0-.77-.22,1.75,1.75,0,0,0-1,.32,1.55,1.55,0,0,0-.63.84,7.44,7.44,0,0,0-.17,1.94v3.81h-2.21V5.93h2V7.17a3.35,3.35,0,0,1,2.76-1.43,3.24,3.24,0,0,1,1.34.27,2.28,2.28,0,0,1,.92.68,2.38,2.38,0,0,1,.43.94,7.08,7.08,0,0,1,.12,1.5Z"/><path d="M75.28,31V22.63h6.06v1h-5V26.2H81v1H76.39v2.86h5.14v1Zm11.64,0v-.89a2.2,2.2,0,0,1-1.92,1A2.44,2.44,0,0,1,84,31a1.64,1.64,0,0,1-.69-.51,2.15,2.15,0,0,1-.32-.77,5.44,5.44,0,0,1-.06-1V25h1v3.38A6.34,6.34,0,0,0,84,29.42a1.13,1.13,0,0,0,.42.64,1.26,1.26,0,0,0,.77.23,1.68,1.68,0,0,0,.87-.24,1.33,1.33,0,0,0,.58-.64,3.58,3.58,0,0,0,.17-1.19V25h1V31Zm2.53,0V25h.93v.92A2.46,2.46,0,0,1,91,25a1.13,1.13,0,0,1,.66-.21,2,2,0,0,1,1.06.34l-.35,1a1.5,1.5,0,0,0-.76-.22,1,1,0,0,0-.61.2,1.22,1.22,0,0,0-.38.57,4.19,4.19,0,0,0-.17,1.2V31ZM93,28a3.13,3.13,0,0,1,.94-2.51,2.83,2.83,0,0,1,1.91-.68,2.71,2.71,0,0,1,2,.83,3.13,3.13,0,0,1,.8,2.27,4.09,4.09,0,0,1-.35,1.85,2.54,2.54,0,0,1-1,1,2.91,2.91,0,0,1-1.46.37,2.7,2.7,0,0,1-2.06-.82A3.25,3.25,0,0,1,93,28Zm1.06,0a2.59,2.59,0,0,0,.51,1.75,1.69,1.69,0,0,0,2.55,0A2.67,2.67,0,0,0,97.62,28a2.53,2.53,0,0,0-.51-1.71,1.69,1.69,0,0,0-2.55,0A2.58,2.58,0,0,0,94.05,28Zm5.84,5.38V25h.94v.79a2.21,2.21,0,0,1,.75-.69,2,2,0,0,1,1-.24,2.37,2.37,0,0,1,2.27,1.54,4.46,4.46,0,0,1,0,3.29,2.6,2.6,0,0,1-1,1.14,2.5,2.5,0,0,1-1.35.4,1.87,1.87,0,0,1-.92-.22,2,2,0,0,1-.67-.55v3Zm.93-5.35a2.62,2.62,0,0,0,.48,1.74,1.43,1.43,0,0,0,1.15.56,1.47,1.47,0,0,0,1.17-.58,2.74,2.74,0,0,0,.49-1.8,2.71,2.71,0,0,0-.48-1.75,1.46,1.46,0,0,0-1.14-.58,1.48,1.48,0,0,0-1.16.62,2.75,2.75,0,0,0-.51,1.79Zm9.74,1,1.07.13a2.59,2.59,0,0,1-.93,1.45,2.79,2.79,0,0,1-1.74.52,2.76,2.76,0,0,1-2.11-.82,3.19,3.19,0,0,1-.78-2.31,3.41,3.41,0,0,1,.78-2.39,2.7,2.7,0,0,1,2.05-.85,2.6,2.6,0,0,1,2,.83,3.36,3.36,0,0,1,.77,2.35v.27h-4.53a2.42,2.42,0,0,0,.56,1.54,1.71,1.71,0,0,0,1.27.53,1.58,1.58,0,0,0,1-.3,1.85,1.85,0,0,0,.63-1Zm-3.37-1.67h3.39a2.14,2.14,0,0,0-.39-1.15,1.59,1.59,0,0,0-1.28-.6,1.62,1.62,0,0,0-1.19.48,1.87,1.87,0,0,0-.53,1.27Zm9.7,2.88a3.67,3.67,0,0,1-1.1.69,3.29,3.29,0,0,1-1.14.2,2.21,2.21,0,0,1-1.54-.49,1.75,1.75,0,0,1-.33-2.07,1.52,1.52,0,0,1,.53-.59,2.38,2.38,0,0,1,.74-.34,6.18,6.18,0,0,1,.92-.16,10,10,0,0,0,1.83-.35c0-.14,0-.23,0-.27a1.16,1.16,0,0,0-.29-.89,1.72,1.72,0,0,0-1.18-.35,1.82,1.82,0,0,0-1.07.25,1.55,1.55,0,0,0-.51.91l-1-.14a2.67,2.67,0,0,1,.46-1.05,2,2,0,0,1,.9-.61,3.92,3.92,0,0,1,1.38-.22,3.5,3.5,0,0,1,1.27.19,1.59,1.59,0,0,1,.71.46,1.62,1.62,0,0,1,.32.7,5.27,5.27,0,0,1,0,.95v1.38a13.12,13.12,0,0,0,.07,1.82,2.13,2.13,0,0,0,.26.73h-1.08a2.28,2.28,0,0,1-.2-.75ZM116.8,28a7.77,7.77,0,0,1-1.68.39,4.43,4.43,0,0,0-.9.2.89.89,0,0,0-.4.34.86.86,0,0,0-.15.49.9.9,0,0,0,.32.69,1.34,1.34,0,0,0,.91.27,2.08,2.08,0,0,0,1.06-.26,1.66,1.66,0,0,0,.68-.71,2.57,2.57,0,0,0,.16-1ZM119.44,31V25h.93v.87a2.19,2.19,0,0,1,1.93-1,2.56,2.56,0,0,1,1,.2,1.58,1.58,0,0,1,.69.52,2,2,0,0,1,.32.76,5.71,5.71,0,0,1,.06,1V31h-1v-3.7a2.84,2.84,0,0,0-.12-.95,1,1,0,0,0-.43-.5,1.37,1.37,0,0,0-.72-.18,1.67,1.67,0,0,0-1.13.42,2.07,2.07,0,0,0-.48,1.59V31Zm9.92,0V22.63h3.71a5,5,0,0,1,1.71.23,1.85,1.85,0,0,1,.93.8,2.43,2.43,0,0,1,.35,1.27,2.11,2.11,0,0,1-.58,1.51,2.92,2.92,0,0,1-1.78.78,3,3,0,0,1,.67.42,5.84,5.84,0,0,1,.92,1.11L136.74,31h-1.39l-1.11-1.75c-.32-.5-.59-.89-.8-1.16a2.92,2.92,0,0,0-.56-.56,1.87,1.87,0,0,0-.51-.22,3.09,3.09,0,0,0-.62,0h-1.28V31Zm1.11-4.7h2.38a3.75,3.75,0,0,0,1.19-.15,1.29,1.29,0,0,0,.65-.51,1.34,1.34,0,0,0,.22-.75,1.23,1.23,0,0,0-.43-1,2,2,0,0,0-1.36-.39h-2.65Zm11.36,2.74,1.06.13a2.59,2.59,0,0,1-.93,1.45,2.79,2.79,0,0,1-1.74.52,2.76,2.76,0,0,1-2.11-.82,3.23,3.23,0,0,1-.78-2.31,3.36,3.36,0,0,1,.79-2.39,2.66,2.66,0,0,1,2-.85,2.6,2.6,0,0,1,2,.83,3.31,3.31,0,0,1,.77,2.35v.27h-4.53A2.37,2.37,0,0,0,139,29.8a1.7,1.7,0,0,0,1.27.53,1.57,1.57,0,0,0,1-.3,1.92,1.92,0,0,0,.64-1Zm-3.38-1.67h3.39a2.14,2.14,0,0,0-.39-1.15,1.57,1.57,0,0,0-1.28-.6,1.62,1.62,0,0,0-1.19.48,1.87,1.87,0,0,0-.53,1.27ZM144,31.55l1,.15a.93.93,0,0,0,.35.67,1.63,1.63,0,0,0,1,.29,1.79,1.79,0,0,0,1.11-.29,1.36,1.36,0,0,0,.52-.8,6.22,6.22,0,0,0,.08-1.32,2.11,2.11,0,0,1-1.68.79,2.29,2.29,0,0,1-1.94-.9,3.5,3.5,0,0,1-.69-2.18,4.09,4.09,0,0,1,.32-1.61,2.39,2.39,0,0,1,2.31-1.54,2.17,2.17,0,0,1,1.78.88V25h.94v5.27a5,5,0,0,1-.28,2,2.14,2.14,0,0,1-.92.94,3.16,3.16,0,0,1-1.54.35,3,3,0,0,1-1.76-.49,1.67,1.67,0,0,1-.64-1.48Zm.85-3.66a2.63,2.63,0,0,0,.48,1.75,1.48,1.48,0,0,0,1.18.55,1.5,1.5,0,0,0,1.19-.55,2.56,2.56,0,0,0,.48-1.72,2.48,2.48,0,0,0-.49-1.68,1.53,1.53,0,0,0-1.19-.57,1.47,1.47,0,0,0-1.17.56,2.47,2.47,0,0,0-.48,1.66Zm5.86-4.07V22.63h1v1.19Zm0,7.22V25h1V31Zm2.22-3a3.13,3.13,0,0,1,.94-2.51,2.83,2.83,0,0,1,1.91-.68,2.71,2.71,0,0,1,2,.83,3.13,3.13,0,0,1,.8,2.27,4.09,4.09,0,0,1-.35,1.85,2.54,2.54,0,0,1-1,1,2.94,2.94,0,0,1-1.46.37,2.7,2.7,0,0,1-2.06-.82,3.25,3.25,0,0,1-.79-2.36ZM154,28a2.59,2.59,0,0,0,.51,1.75,1.69,1.69,0,0,0,2.55,0,2.67,2.67,0,0,0,.51-1.79,2.53,2.53,0,0,0-.51-1.71,1.62,1.62,0,0,0-1.27-.58,1.6,1.6,0,0,0-1.28.58A2.58,2.58,0,0,0,154,28Zm5.84,3V25h.93v.87a2.18,2.18,0,0,1,1.93-1,2.6,2.6,0,0,1,1,.2,1.7,1.7,0,0,1,.69.52,2,2,0,0,1,.32.76,7.35,7.35,0,0,1,0,1V31h-1v-3.7a2.84,2.84,0,0,0-.12-.95,1.06,1.06,0,0,0-.42-.5,1.4,1.4,0,0,0-.72-.18,1.63,1.63,0,0,0-1.13.42,2.07,2.07,0,0,0-.48,1.59V31Zm10.48-.75a3.67,3.67,0,0,1-1.1.69,3.25,3.25,0,0,1-1.14.2,2.16,2.16,0,0,1-1.53-.49,1.61,1.61,0,0,1-.54-1.25,1.74,1.74,0,0,1,.2-.82,1.6,1.6,0,0,1,.53-.59,2.38,2.38,0,0,1,.74-.34,6.43,6.43,0,0,1,.92-.16,10,10,0,0,0,1.83-.35c0-.14,0-.23,0-.27a1.16,1.16,0,0,0-.29-.89,1.71,1.71,0,0,0-1.17-.35,1.83,1.83,0,0,0-1.08.25,1.55,1.55,0,0,0-.51.91l-1-.14a2.53,2.53,0,0,1,.45-1.05,2,2,0,0,1,.91-.61,3.82,3.82,0,0,1,1.37-.22,3.5,3.5,0,0,1,1.27.19,1.59,1.59,0,0,1,.71.46,1.62,1.62,0,0,1,.32.7,5.27,5.27,0,0,1,0,.95v1.38a15.06,15.06,0,0,0,.07,1.82,2.13,2.13,0,0,0,.26.73h-1.07a2.06,2.06,0,0,1-.21-.75Zm-.09-2.3a7.77,7.77,0,0,1-1.68.39,4.14,4.14,0,0,0-.89.2.87.87,0,0,0-.41.34.85.85,0,0,0-.14.49.89.89,0,0,0,.31.69,1.35,1.35,0,0,0,.91.27,2.06,2.06,0,0,0,1.06-.26,1.61,1.61,0,0,0,.68-.71,2.57,2.57,0,0,0,.16-1ZM172.84,31V22.63h1V31Z"/><path d="M75.25,45.73V37.32h2.89a7,7,0,0,1,1.49.12,2.84,2.84,0,0,1,1.23.6,3.44,3.44,0,0,1,1,1.44,6.53,6.53,0,0,1,.1,3.7,4.19,4.19,0,0,1-.57,1.22,3.09,3.09,0,0,1-.76.77,3.38,3.38,0,0,1-1,.42,6,6,0,0,1-1.35.14Zm1.11-1h1.79a4,4,0,0,0,1.3-.16,1.92,1.92,0,0,0,.76-.43,2.76,2.76,0,0,0,.61-1.07A5.07,5.07,0,0,0,81,41.46a3.93,3.93,0,0,0-.43-2,2.26,2.26,0,0,0-1-1,4.48,4.48,0,0,0-1.43-.17H76.36Zm11.38-1,1.06.13a2.52,2.52,0,0,1-.93,1.45,2.75,2.75,0,0,1-1.74.52A2.78,2.78,0,0,1,84,45a3.19,3.19,0,0,1-.78-2.3A3.36,3.36,0,0,1,84,40.35a2.66,2.66,0,0,1,2-.85,2.62,2.62,0,0,1,2,.83,3.35,3.35,0,0,1,.77,2.34c0,.06,0,.16,0,.28H84.31a2.31,2.31,0,0,0,.56,1.54,1.7,1.7,0,0,0,1.27.53,1.58,1.58,0,0,0,1-.3,2.08,2.08,0,0,0,.63-.95ZM84.36,42.1h3.39A2,2,0,0,0,87.36,41a1.55,1.55,0,0,0-1.27-.6,1.62,1.62,0,0,0-1.19.48,1.86,1.86,0,0,0-.54,1.27Zm7.43,3.63-2.31-6.09h1.09l1.3,3.65c.14.39.27.8.39,1.22.09-.32.22-.7.38-1.15L94,39.64h1.06l-2.3,6.09Zm8.32-2,1.07.13a2.59,2.59,0,0,1-.94,1.45,2.74,2.74,0,0,1-1.73.52A2.79,2.79,0,0,1,96.39,45a3.19,3.19,0,0,1-.78-2.3,3.41,3.41,0,0,1,.79-2.39,2.66,2.66,0,0,1,2-.85,2.62,2.62,0,0,1,2,.83,3.35,3.35,0,0,1,.77,2.34V43H96.68a2.36,2.36,0,0,0,.56,1.54,1.71,1.71,0,0,0,1.27.53,1.58,1.58,0,0,0,1-.3,1.94,1.94,0,0,0,.63-.95ZM96.73,42.1h3.4A2.11,2.11,0,0,0,99.74,41a1.59,1.59,0,0,0-1.28-.6,1.62,1.62,0,0,0-1.19.48,1.91,1.91,0,0,0-.54,1.27Zm5.72,3.63V37.32h1v8.41Zm2.25-3a3.12,3.12,0,0,1,.94-2.5,2.81,2.81,0,0,1,1.91-.68,2.7,2.7,0,0,1,2,.82,3.15,3.15,0,0,1,.8,2.28,4.12,4.12,0,0,1-.35,1.85,2.54,2.54,0,0,1-1,1,3,3,0,0,1-1.46.37,2.78,2.78,0,0,1-2.07-.82,3.32,3.32,0,0,1-.78-2.37Zm1.06,0a2.68,2.68,0,0,0,.5,1.76,1.67,1.67,0,0,0,1.29.58,1.62,1.62,0,0,0,1.27-.59,2.65,2.65,0,0,0,.51-1.78,2.53,2.53,0,0,0-.51-1.71,1.63,1.63,0,0,0-1.27-.59,1.67,1.67,0,0,0-1.29.58,2.65,2.65,0,0,0-.5,1.75Zm5.84,5.39V39.64h.94v.79a2.35,2.35,0,0,1,.75-.7,2.07,2.07,0,0,1,1-.23,2.37,2.37,0,0,1,1.37.4,2.47,2.47,0,0,1,.9,1.13,4.23,4.23,0,0,1,.3,1.61,4.13,4.13,0,0,1-.33,1.68,2.58,2.58,0,0,1-1,1.15,2.52,2.52,0,0,1-1.34.4,1.87,1.87,0,0,1-.92-.22,2.15,2.15,0,0,1-.67-.55v3Zm.93-5.35a2.66,2.66,0,0,0,.48,1.74,1.44,1.44,0,0,0,1.15.56,1.52,1.52,0,0,0,1.17-.58,2.76,2.76,0,0,0,.49-1.81,2.68,2.68,0,0,0-.48-1.74,1.4,1.4,0,0,0-2.3,0,2.73,2.73,0,0,0-.51,1.79Zm5.59,3V39.64H119v.85a2.13,2.13,0,0,1,1.84-1,1.93,1.93,0,0,1,1.1.28,1.46,1.46,0,0,1,.61.79,2.19,2.19,0,0,1,1.88-1.07,1.88,1.88,0,0,1,1.39.5,2.18,2.18,0,0,1,.48,1.55v4.18h-1V41.89a2.73,2.73,0,0,0-.1-.89.91.91,0,0,0-.36-.44,1.15,1.15,0,0,0-.62-.17,1.44,1.44,0,0,0-1.06.43,1.86,1.86,0,0,0-.43,1.37v3.54h-1v-4a1.72,1.72,0,0,0-.25-1,1,1,0,0,0-.82-.35,1.49,1.49,0,0,0-.8.23,1.31,1.31,0,0,0-.54.68,3.77,3.77,0,0,0-.16,1.27v3.16Zm13.92-2,1.06.13a2.63,2.63,0,0,1-.93,1.45,3.13,3.13,0,0,1-3.85-.31,3.19,3.19,0,0,1-.78-2.3,3.36,3.36,0,0,1,.79-2.39,2.64,2.64,0,0,1,2-.85,2.59,2.59,0,0,1,2,.83,3.31,3.31,0,0,1,.78,2.34c0,.06,0,.16,0,.28H128.6a2.37,2.37,0,0,0,.57,1.54,1.7,1.7,0,0,0,1.27.53,1.55,1.55,0,0,0,1-.3,2,2,0,0,0,.64-.95Zm-3.38-1.67h3.39a2.11,2.11,0,0,0-.39-1.15,1.57,1.57,0,0,0-1.27-.6,1.64,1.64,0,0,0-1.2.48,1.85,1.85,0,0,0-.53,1.27Zm5.74,3.63V39.64h.93v.86a2.17,2.17,0,0,1,1.93-1,2.6,2.6,0,0,1,1,.2,1.62,1.62,0,0,1,.69.52,2,2,0,0,1,.32.76,7.28,7.28,0,0,1,.05,1v3.75h-1V42a2.78,2.78,0,0,0-.12-.94,1,1,0,0,0-.42-.5,1.4,1.4,0,0,0-.72-.19,1.63,1.63,0,0,0-1.13.42,2.07,2.07,0,0,0-.48,1.59v3.33Zm8.76-.92.15.91a3.88,3.88,0,0,1-.77.09,1.71,1.71,0,0,1-.87-.18,1,1,0,0,1-.44-.46,3.91,3.91,0,0,1-.12-1.22V40.44h-.76v-.8h.76V38.13l1-.62v2.13h1v.8h-1V44a2.05,2.05,0,0,0,.05.57.44.44,0,0,0,.18.2.67.67,0,0,0,.35.08c.12,0,.27,0,.45,0Zm4.44.92V37.32h5.66v1h-4.55v2.61h3.93v1h-3.93v3.82Zm11,0v-.89a2.24,2.24,0,0,1-1.93,1,2.39,2.39,0,0,1-1-.21,1.65,1.65,0,0,1-.69-.52,1.94,1.94,0,0,1-.32-.76,5.65,5.65,0,0,1-.06-1V39.64h1V43a6.34,6.34,0,0,0,.06,1.09,1.07,1.07,0,0,0,.41.64,1.31,1.31,0,0,0,.78.23,1.68,1.68,0,0,0,.87-.24,1.29,1.29,0,0,0,.57-.65,3.3,3.3,0,0,0,.17-1.19V39.64h1v6.09Zm2.54,0V39.64H162v.86a2.18,2.18,0,0,1,1.94-1,2.6,2.6,0,0,1,1,.2,1.53,1.53,0,0,1,.68.52A1.86,1.86,0,0,1,166,41a5.66,5.66,0,0,1,.06,1v3.75h-1V42a2.78,2.78,0,0,0-.12-.94,1,1,0,0,0-.42-.5,1.43,1.43,0,0,0-.72-.19,1.67,1.67,0,0,0-1.14.42,2.11,2.11,0,0,0-.47,1.59v3.33Zm10.45,0V45a1.87,1.87,0,0,1-1.69.91,2.45,2.45,0,0,1-1.34-.4,2.69,2.69,0,0,1-.94-1.13,3.74,3.74,0,0,1-.34-1.65,4.23,4.23,0,0,1,.31-1.66,2.4,2.4,0,0,1,2.26-1.53,2.08,2.08,0,0,1,1,.23,2.18,2.18,0,0,1,.7.61v-3h1v8.41Zm-3.25-3a2.71,2.71,0,0,0,.49,1.75,1.46,1.46,0,0,0,2.31,0,2.6,2.6,0,0,0,.47-1.69,2.87,2.87,0,0,0-.48-1.84,1.47,1.47,0,0,0-1.18-.59,1.42,1.42,0,0,0-1.15.57,2.74,2.74,0,0,0-.46,1.77Z"/><rect x="1.25" y="1.25" width="71.25" height="47.47" fill="#283485"/><rect x="1.25" y="1.25" width="71.25" height="47.47" fill="none" stroke="#283485" stroke-miterlimit="1" stroke-width="2.5"/><polygon points="36.82 6.45 36.23 8.27 34.27 8.27 35.84 9.42 35.25 11.23 36.82 10.12 38.36 11.23 37.76 9.42 39.37 8.27 37.41 8.27 36.82 6.45" fill="#ffce00"/><polygon points="20.97 22.33 20.38 24.18 18.43 24.18 20.03 25.3 19.44 27.12 20.97 26.04 22.54 27.12 21.95 25.3 23.52 24.18 21.57 24.18 20.97 22.33" fill="#ffce00"/><polygon points="52.63 22.33 52.04 24.15 50.09 24.15 51.66 25.3 51.06 27.12 52.63 26 54.17 27.12 53.58 25.3 55.18 24.15 53.23 24.15 52.63 22.33" fill="#ffce00"/><polygon points="36.86 38.11 36.26 39.93 34.31 39.93 35.91 41.08 35.32 42.9 36.86 41.78 38.43 42.9 37.83 41.08 39.4 39.93 37.45 39.93 36.86 38.11" fill="#ffce00"/><polygon points="44.71 8.51 44.12 10.33 42.16 10.33 43.73 11.48 43.14 13.29 44.71 12.18 46.28 13.29 45.69 11.48 47.26 10.33 45.3 10.33 44.71 8.51" fill="#ffce00"/><polygon points="50.47 14.34 49.88 16.16 47.92 16.16 49.49 17.31 48.9 19.12 50.47 18.01 52.04 19.12 51.41 17.31 53.02 16.16 51.06 16.16 50.47 14.34" fill="#ffce00"/><polygon points="50.58 30.12 49.98 31.93 48.03 31.93 49.6 33.09 49 34.9 50.58 33.78 52.11 34.9 51.52 33.09 53.12 31.93 51.17 31.93 50.58 30.12" fill="#ffce00"/><polygon points="44.78 35.91 44.19 37.76 42.23 37.76 43.8 38.88 43.21 40.7 44.78 39.58 46.32 40.7 45.72 38.88 47.33 37.76 45.37 37.76 44.78 35.91" fill="#ffce00"/><polygon points="28.93 35.91 28.34 37.73 26.38 37.73 27.99 38.88 27.4 40.7 28.93 39.58 30.5 40.7 29.91 38.88 31.48 37.73 29.52 37.73 28.93 35.91" fill="#ffce00"/><polygon points="23.14 30.08 22.54 31.93 20.59 31.93 22.16 33.05 21.57 34.87 23.14 33.78 24.71 34.87 24.11 33.05 25.69 31.93 23.73 31.93 23.14 30.08" fill="#ffce00"/><polygon points="23.1 14.34 22.51 16.16 20.55 16.16 22.16 17.31 21.57 19.12 23.1 18.01 24.67 19.12 24.08 17.31 25.65 16.16 23.7 16.16 23.1 14.34" fill="#ffce00"/><polygon points="28.93 8.51 28.34 10.36 26.38 10.36 27.95 11.51 27.36 13.33 28.93 12.21 30.5 13.33 29.91 11.51 31.48 10.36 29.52 10.36 28.93 8.51" fill="#ffce00"/></svg>