<svg id="Layer_1" data-name="Layer 1" xmlns="http://www.w3.org/2000/svg" width="163.96" height="49.54" viewBox="0 0 163.96 49.54"><title>Northumbria Logo</title><path d="M61.74,9.23V.7h2.91V13.86H61.74l-6-8.2v8.2H52.8V.7h2.89Z" fill="#13110c"/><path d="M71.55,14.06a5.23,5.23,0,0,1-3.78-1.39,4.6,4.6,0,0,1-1.43-3.56,4.69,4.69,0,0,1,1.43-3.55,5.77,5.77,0,0,1,7.56,0,4.69,4.69,0,0,1,1.46,3.55,4.83,4.83,0,0,1-1.46,3.57A5.27,5.27,0,0,1,71.55,14.06ZM70,10.93a2.09,2.09,0,0,0,2.94.17,1.29,1.29,0,0,0,.16-.17,2.63,2.63,0,0,0,.61-1.82,2.63,2.63,0,0,0-.61-1.82,2.09,2.09,0,0,0-2.94-.17L70,7.29a2.73,2.73,0,0,0-.59,1.82A2.73,2.73,0,0,0,70,10.93Z" fill="#13110c"/><path d="M81.09,13.86h-3V4.34h3V5.65a2.66,2.66,0,0,1,1.42-1.3,3.22,3.22,0,0,1,2.08-.07V6.69a3.55,3.55,0,0,0-2.09.06,2.83,2.83,0,0,0-1.41,1.07Z" fill="#13110c"/><path d="M90.75,14a3.56,3.56,0,0,1-2.57-.88,3.42,3.42,0,0,1-.91-2.57V6.69H85.54V4.34h1.77V2.15l3-.83v3H92.8V6.69H90.28v3.58a1.19,1.19,0,0,0,1.32,1.37,3.78,3.78,0,0,0,1.24-.23v2.33A7,7,0,0,1,90.75,14Z" fill="#13110c"/><path d="M100.16,4.12a3.37,3.37,0,0,1,2.63,1.08,4.42,4.42,0,0,1,1,3.07v5.59h-3V8.59a2.07,2.07,0,0,0-.51-1.5A1.68,1.68,0,0,0,99,6.56a2.6,2.6,0,0,0-1.91.88v6.42h-3V.7h3V5.55A4.28,4.28,0,0,1,100.16,4.12Z" fill="#13110c"/><path d="M111.35,10.74V4.34h3v9.52h-3V12.65a4.36,4.36,0,0,1-3.1,1.43A3.37,3.37,0,0,1,105.62,13a4.42,4.42,0,0,1-1-3.07V4.34h3V9.61a2.12,2.12,0,0,0,.5,1.48,1.7,1.7,0,0,0,1.29.55A2.61,2.61,0,0,0,111.35,10.74Z" fill="#13110c"/><path d="M127.34,4.12q3.33,0,3.33,4.08v5.66h-3V8.52A2.56,2.56,0,0,0,127.31,7a1.29,1.29,0,0,0-1.11-.47,2.27,2.27,0,0,0-1.67.85c0,.42,0,.68,0,.78v5.67h-3V8.52a2.64,2.64,0,0,0-.33-1.5,1.21,1.21,0,0,0-1.09-.46,2.17,2.17,0,0,0-1.67.89v6.41h-3V4.34h3V5.53a4,4,0,0,1,3-1.41,2.74,2.74,0,0,1,2.66,1.52A4.26,4.26,0,0,1,127.34,4.12Z" fill="#13110c"/><path d="M137.93,4.14a3.73,3.73,0,0,1,3,1.41,5.53,5.53,0,0,1,1.16,3.59,5.22,5.22,0,0,1-1.22,3.59,3.88,3.88,0,0,1-3,1.33,4.25,4.25,0,0,1-2.89-1.13v.93h-3V.7h3V5.57A3.39,3.39,0,0,1,137.93,4.14Zm-1.06,7.48a1.9,1.9,0,0,0,1.54-.71A2.92,2.92,0,0,0,139,9a2.64,2.64,0,0,0-.57-1.8,1.88,1.88,0,0,0-1.52-.63,2.54,2.54,0,0,0-1.85.83v3.49A2.82,2.82,0,0,0,136.87,11.62Z" fill="#13110c"/><path d="M145.66,13.86h-3V4.34h3V5.65a2.66,2.66,0,0,1,1.42-1.3,3.22,3.22,0,0,1,2.08-.07V6.69a3.55,3.55,0,0,0-2.09.06,2.83,2.83,0,0,0-1.41,1.07Z" fill="#13110c"/><path d="M149.87,1.71a1.55,1.55,0,0,1,.52-1.19,2,2,0,0,1,2.58,0,1.55,1.55,0,0,1,.52,1.19A1.6,1.6,0,0,1,153,2.93a1.93,1.93,0,0,1-2.58,0A1.6,1.6,0,0,1,149.87,1.71Zm3.34,12.15h-3V4.34h3Z" fill="#13110c"/><path d="M58.65,32.57a6,6,0,0,1-4.19-1.46,4.94,4.94,0,0,1-1.66-3.89v-8H56V27a2.85,2.85,0,0,0,.69,2.1,2.52,2.52,0,0,0,2,.81,2.6,2.6,0,0,0,2-.81,2.8,2.8,0,0,0,.7-2.1V19.2h3.16v8a4.93,4.93,0,0,1-1.65,3.89A6.11,6.11,0,0,1,58.65,32.57Z" fill="#13110c"/><path d="M72.1,22.63a3.41,3.41,0,0,1,2.64,1.08,4.42,4.42,0,0,1,1,3.07v5.58h-3V27.1a2.06,2.06,0,0,0-.5-1.5,1.68,1.68,0,0,0-1.29-.53A2.67,2.67,0,0,0,69,26v6.41H66V22.85h3v1.21A4.32,4.32,0,0,1,72.1,22.63Z" fill="#13110c"/><path d="M76.39,20.22A1.55,1.55,0,0,1,76.91,19a2,2,0,0,1,2.58,0A1.55,1.55,0,0,1,80,20.22a1.61,1.61,0,0,1-.52,1.22,1.93,1.93,0,0,1-2.58,0A1.61,1.61,0,0,1,76.39,20.22Zm3.35,12.14h-3V22.85h3Z" fill="#13110c"/><path d="M86.39,29.32l2.36-6.47h3l-3.95,9.51h-3l-4-9.51H84Z" fill="#13110c"/><path d="M96,22.65a4.43,4.43,0,0,1,3.65,1.52,5.57,5.57,0,0,1,1,4.23H94a2.15,2.15,0,0,0,.91,1.41,3.46,3.46,0,0,0,1.88.49,6,6,0,0,0,3.15-.87v2.31a7.08,7.08,0,0,1-3.52.83,5.28,5.28,0,0,1-4-1.45A4.93,4.93,0,0,1,96,22.65Zm0,2.19a1.83,1.83,0,0,0-2,1.64h3.75a1.7,1.7,0,0,0-1.75-1.64Z" fill="#13110c"/><path d="M105,32.36h-3V22.85h3v1.3a2.64,2.64,0,0,1,1.41-1.3,3.25,3.25,0,0,1,2.09-.07V25.2a3.58,3.58,0,0,0-2.1.06,2.81,2.81,0,0,0-1.4,1.07Z" fill="#13110c"/><path d="M113.26,32.57a8.63,8.63,0,0,1-4.23-1V29.21a7.77,7.77,0,0,0,2,1,6.54,6.54,0,0,0,2,.37c1.1,0,1.65-.28,1.65-.83s-.66-.8-2-1c-.42-.08-.84-.18-1.25-.3a5.83,5.83,0,0,1-1.14-.51,2.42,2.42,0,0,1-.93-.92,2.69,2.69,0,0,1-.3-1.39,2.4,2.4,0,0,1,1.18-2.15,5.42,5.42,0,0,1,3-.77,7.2,7.2,0,0,1,3.78.91v2.25a6.75,6.75,0,0,0-1.81-.83,7.09,7.09,0,0,0-1.93-.32c-.91,0-1.38.24-1.38.7q0,.38.51.6a7.6,7.6,0,0,0,1.48.43,11.57,11.57,0,0,1,1.26.31,5.91,5.91,0,0,1,1.14.53,2.45,2.45,0,0,1,.91.95,2.86,2.86,0,0,1,.32,1.41,2.46,2.46,0,0,1-1.23,2.2A5.68,5.68,0,0,1,113.26,32.57Z" fill="#13110c"/><path d="M118.51,20.22A1.55,1.55,0,0,1,119,19a2,2,0,0,1,2.58,0,1.55,1.55,0,0,1,.52,1.19,1.61,1.61,0,0,1-.52,1.22,1.93,1.93,0,0,1-2.58,0A1.61,1.61,0,0,1,118.51,20.22Zm3.35,12.14h-3V22.85h3Z" fill="#13110c"/><path d="M128.07,32.55a3.55,3.55,0,0,1-2.57-.88,3.43,3.43,0,0,1-.91-2.58V25.2h-1.73V22.85h1.77v-2.2l3-.82v3h2.52V25.2H127.6v3.58q0,1.38,1.32,1.38a4.06,4.06,0,0,0,1.24-.23v2.31A7.05,7.05,0,0,1,128.07,32.55Z" fill="#13110c"/><path d="M136.24,28.79l2.42-5.94h3.05l-5.94,13.2h-2.92l2-3.95-4.21-9.25h3.24Z" fill="#13110c"/><path d="M157.6,14.11a3.17,3.17,0,0,1-2.27-.85,3,3,0,0,1-.86-2.21,2.68,2.68,0,0,1,1-2.23,3.52,3.52,0,0,1,2.32-.73,4.71,4.71,0,0,1,2.18.47V8.43a1.16,1.16,0,0,0-.71-1.25A3.46,3.46,0,0,0,158,7a4.76,4.76,0,0,0-2.5.67V5.12a7,7,0,0,1,3.22-.67,4.57,4.57,0,0,1,3.06,1A3.33,3.33,0,0,1,163,8.16v2.78c0,.33.16.49.5.49a.93.93,0,0,0,.49-.11V13.6a2.3,2.3,0,0,1-1.52.47A2.17,2.17,0,0,1,160.35,13,3.64,3.64,0,0,1,157.6,14.11Zm1-2.15a1.57,1.57,0,0,0,1.39-.8v-1a2,2,0,0,0-1.25-.4,1.49,1.49,0,0,0-1,.31,1,1,0,0,0-.38.8,1,1,0,0,0,.34.75A1.29,1.29,0,0,0,158.61,12Z" fill="#13110c"/><path d="M59.39,49.46,54,41.75h0v7.7h-.86v-9.2H54L59.39,48h0V40.25h.86v9.21Z" fill="#13110c"/><path d="M63.24,49.45V40.16h5.62V41H64.1V44.2h4v.86h-4v3.52h4.82v.86Z" fill="#13110c"/><path d="M73.65,49.45l-2.86-9.29h.9L74,47.73h0l2.51-7.57h.91L80,47.73h0l2.34-7.57h.9L80.4,49.45h-.73L77,41.57h0l-2.64,7.88Z" fill="#13110c"/><path d="M89.55,49.54a4.73,4.73,0,0,1-.19-9.45h.19a5,5,0,0,1,2.83.88v1.09a4.14,4.14,0,0,0-2.79-1.12,3.78,3.78,0,0,0-2.77,1.12,3.92,3.92,0,0,0,0,5.5,3.78,3.78,0,0,0,2.77,1.12,4.14,4.14,0,0,0,2.79-1.12v1.09A4.94,4.94,0,0,1,89.55,49.54Z" fill="#13110c"/><path d="M101.18,49.45l-1.05-2.81H96.34l-1.06,2.81h-.93l3.52-9.29h.74l3.5,9.29Zm-4.52-3.67H99.8l-1.21-3.22-.35-1h0l-.34,1Z" fill="#13110c"/><path d="M106.86,49.52a4.72,4.72,0,0,1-2.8-.94V47.52a4.45,4.45,0,0,0,2.83,1.15,2.47,2.47,0,0,0,1.53-.46,1.4,1.4,0,0,0,.58-1.13,1.3,1.3,0,0,0-.42-.92,3.15,3.15,0,0,0-.76-.6c-.24-.12-.6-.29-1.08-.5l-.15-.06c-.45-.19-.79-.35-1-.48a4.16,4.16,0,0,1-.75-.48,1.67,1.67,0,0,1-.55-.66,2.15,2.15,0,0,1-.16-.86,2.13,2.13,0,0,1,.82-1.77,3.15,3.15,0,0,1,2.09-.62,4.4,4.4,0,0,1,2.38.74v1A3.48,3.48,0,0,0,107,41a2.59,2.59,0,0,0-1.46.39,1.32,1.32,0,0,0-.61,1.05,1,1,0,0,0,0,.3A1.83,1.83,0,0,0,105,43a.86.86,0,0,0,.13.23l.17.18a1,1,0,0,0,.23.18l.25.15.3.15.29.14a2.5,2.5,0,0,1,.33.14l.33.13c.42.18.78.34,1.05.48a6,6,0,0,1,.86.55,2.24,2.24,0,0,1,.66.77,2.18,2.18,0,0,1,.21,1,2.22,2.22,0,0,1-.82,1.78A3.2,3.2,0,0,1,106.86,49.52Z" fill="#13110c"/><path d="M119.4,40.17V41h-3.34v8.43h-.85V41h-3.37v-.85Z" fill="#13110c"/><path d="M121.81,49.45V40.16h.86v8.42h4.81v.86Z" fill="#13110c"/><path d="M130,49.45V40.16h5.61V41h-4.75V44.2h4v.86h-4v3.52h4.81v.86Z" fill="#13110c"/><rect x="29.8" y="7.42" width="0.77" height="1.55" fill="#13110c"/><path d="M34.61,13.07h.78V11.35h-.78Z" fill="#13110c"/><path d="M5.53,13.07h.78V11.35H5.53Z" fill="#13110c"/><path d="M15.19,13.07H16V11.35h-.77Z" fill="#13110c"/><rect x="10.38" y="7.42" width="0.77" height="1.55" fill="#13110c"/><path d="M25,13.07h.77V11.35H25Z" fill="#13110c"/><path d="M40.73,0H0S.15,11.52.15,17.84c0,6.77,2,10.44,2,10.44l2.26-1.42L3.14,24.5l4.24-2.14,1.23,2.55,2.3-.78-.62-2.43,4.51-1.15.66,2.62,2.64-.24,0-2.61h4.51l0,2.67,2.71.42L26,20.55l4.59,1.16-.68,2.49,2.29.74,1.37-2.49,4.21,2.21L36.53,27l2.06,1.38a22.62,22.62,0,0,0,2.15-9.64C40.74,12.67,40.73,0,40.73,0ZM17.12,15.37H14l.31-.69v-4l2.44,0v4.06ZM9.55,4.08v.77h.83V4.08h.78v.77h.75V4.08h.4V5.69H9.23V4.08ZM12,6.56V9.8H9.56V6.56ZM4.69,8.2V9h.84V8.2h.78V9h.75V8.2h.4V9.81H4.37V8.2Zm2.78,7.17H4.37l.31-.69v-4l2.44,0v4.06Zm0,2.47H4.37V16.21h3.1Zm6-3.16-.44.69v2.45h-.8V15.37L10.7,13.85,9.15,15.38v2.44h-.8V15.37l-.45-.73V13.09h5.58Zm0-2.58H7.91v-.67h.87v-.79h.78v.79h.82v-.79h.78v.79H12v-.79h.77v.79h.73Zm.86-3.9V9h.85V8.2H16V9h.76V8.2h.39V9.8H14V8.2Zm2.78,9.64H14V16.21h3.09Zm19.41-2.47H33.45l.31-.69v-4l2.44,0v4.06ZM29,4.08v.77h.84V4.08h.77v.77h.75V4.08h.4V5.69H28.65V4.08Zm2.42,2.48V9.8H29V6.56ZM24.11,8.2V9H25V8.2h.77V9h.76V8.2h.39V9.81H23.8V8.2Zm2.77,7.18H23.8l.31-.69v-4l2.44,0v4.06Zm0,2.47H23.8V16.21h3.08Zm6-3.16-.44.69v2.44h-.79V15.37l-1.54-1.52-1.55,1.53v2.44h-.8V15.37l-.45-.73V13.09H32.9Zm0-2.58H27.33v-.68h.87v-.79H29v.79h.82v-.79h.78v.79h.82v-.79h.77v.79h.74Zm.87-3.91V9h.85V8.2h.78V9h.76V8.2h.39V9.8H33.45V8.19Zm2.78,9.65H33.45V16.21h3.09Z" fill="#13110c"/><path d="M27.43,29.49A1.36,1.36,0,0,0,26,28.36a5,5,0,0,1-1.09,0,6.56,6.56,0,0,0-4.18.54.64.64,0,0,1-.63,0,6.57,6.57,0,0,0-4.05-.54,5,5,0,0,1-1.16,0,1.36,1.36,0,0,0-1.47,1.22v.06c0,1.11-.07,2.22-.1,3-.07,1.43-.12,2.54-.18,3.65,0,.56,0,1,.55,1,.86,0,1.72,0,2.59-.06,1.38,0,2.78-.06,4,.89.17.14.28.07.41,0a3,3,0,0,1,1.66-.72,18.82,18.82,0,0,1,2.24-.13c.82,0,1.64.06,2.46.07.66,0,.68-.38.65-1.05C27.61,34,27.53,31.73,27.43,29.49ZM20,35.6c0,.51,0,.47-.49.39a12.15,12.15,0,0,0-2.36-.1c-.52,0-2,.25-2-.2a22.57,22.57,0,0,1,.11-5.7,5.11,5.11,0,0,1,2.31-.55c.73,0,2.44.2,2.44,1.19v2.31h0C20,33.83,20,34.71,20,35.6Zm5.7.09c0,.45-1.49.21-2,.2a12.19,12.19,0,0,0-2.36.1c-.47.08-.48.12-.49-.39,0-.89,0-1.77,0-2.65h0V30.63c0-1,1.72-1.15,2.45-1.18a4.8,4.8,0,0,1,2.3.55,23,23,0,0,1,.12,5.69Z" fill="#13110c"/><path d="M35.52,27.2l1.24-2.26-2.91-1.53-1.28,2.36a27.48,27.48,0,0,0-3.49-1c.18-.86.59-2.53.59-2.53l-3.16-.79-.7,2.69c-.1-.06-3.72-.5-3.93-.5,0-.51.1-2.64.1-2.64s-2.08,0-3.14,0v2.53c-.07.07-2.87.18-3.79.44-.13-.53-.71-2.53-.71-2.53l-3.14.83.58,2.44L8.3,25.93,7.05,23.38,4.19,24.86l1.13,2.38A29.22,29.22,0,0,0,2.6,29C8.74,44.16,20.4,49.34,20.4,49.34S31.31,45,38.38,29Zm-7,10.6c-.78.27-4.8-.12-5.77,0a2.39,2.39,0,0,0-2,1.06c-.15.23-.35.4-.56.06a2.93,2.93,0,0,0-2.61-1.2c-.84,0-5.26.36-5.25.06.11-2.4.2-6.78.27-8.68a5,5,0,0,1,1.83-1.4,1.47,1.47,0,0,0,.66.27s1.39-.23,2-.27a6.17,6.17,0,0,1,3.07.58c.36.16.37.15.74,0a7.33,7.33,0,0,1,3.59-.46,6.81,6.81,0,0,0,1.62.12c.25,0,.46-.18.55-.14A11.16,11.16,0,0,1,28.37,29s.2,6.92.11,8.78Z" fill="#13110c"/></svg>