<svg id="ryder-logo" xmlns="http://www.w3.org/2000/svg" width="102.43" height="40.24" viewBox="0 0 102.43 40.24"><title>ryder</title><path d="M3.24,5.25H6.57c4.46,0,8.25.3,8.25,5,0,4-4.36,5.33-8.16,5.33H3.24V5.25ZM0,31.83H3.24V18.13H5.91c3.1,0,4.51.12,6.38,3.87L17,31.83h3.56L15,20.58c-1-2-1.59-3.21-4.22-3.5V17c4-.46,7.27-3,7.27-6.71,0-5.33-3.8-7.53-9.61-7.53H0Z" transform="translate(0 -0.59)" fill="#373736"/><path d="M31.66,35c-1.12,2.92-2.81,5.84-6.15,5.84a15.65,15.65,0,0,1-3.18-.34l.28-2.25a6.54,6.54,0,0,0,2.2.34c2.54,0,3.38-1.88,4.32-4.63l.61-1.87L21.25,10.59h3.23l6.71,17.74-.05,0h.1l6.89-17.7h3.1L31.66,35Z" transform="translate(0 -0.59)" fill="#373736"/><path d="M46,21.21c0-4.12,1.45-8.87,7.08-8.87,5.26,0,7.08,5,7.08,8.87s-1.82,8.87-7.08,8.87c-5.63,0-7.08-4.75-7.08-8.87ZM63.13.59h-3V14.17h-.09a8.11,8.11,0,0,0-7.45-4.08c-7,0-9.85,4.66-9.85,11.12,0,6.29,3.28,11.12,9.85,11.12,3.42,0,5.86-1.17,7.45-3.87h.09v3.37h3Z" transform="translate(0 -0.59)" fill="#373736"/><path d="M70.54,19.71c0-3.5,2.67-7.37,7-7.37s6.09,3.66,6.09,7.37ZM85.13,28.5a17,17,0,0,1-6.71,1.58c-5.16,0-7.88-3.62-7.88-8.12H86.91V20.62c0-5.7-2.77-10.53-9.52-10.53-6,0-10.09,4.62-10.09,11.12s3,11.12,10.88,11.12a21.85,21.85,0,0,0,6.95-1.17Z" transform="translate(0 -0.59)" fill="#373736"/><path d="M91.36,15.33a35.23,35.23,0,0,0-.18-4.74h2.95v4.08h.09c1.08-2.38,3.1-4.58,6.15-4.58a9.44,9.44,0,0,1,2.06.25v2.75a8.46,8.46,0,0,0-2.15-.25c-4.7,0-6,4.66-6,8.49v10.5h-3V15.33Z" transform="translate(0 -0.59)" fill="#373736"/></svg>